<svg xmlns="http://www.w3.org/2000/svg" viewBox="0 0 32 32" width="32" height="32" shape-rendering="geometricPrecision">
<line x1="9.02" y1="12.55" x2="20.05" y2="20.22" stroke="#18a8a2" stroke-opacity="0.229" stroke-width="1"/>
<line x1="20.97" y1="7.56" x2="20.05" y2="20.22" stroke="#18a8a2" stroke-opacity="0.251" stroke-width="1"/>
<line x1="9.02" y1="12.55" x2="20.97" y2="7.56" stroke="#18a8a2" stroke-opacity="0.262" stroke-width="1"/>
<line x1="9.42" y1="24.61" x2="20.05" y2="20.22" stroke="#18a8a2" stroke-opacity="0.272" stroke-width="1"/>
<line x1="9.42" y1="24.61" x2="9.02" y2="12.55" stroke="#18a8a2" stroke-opacity="0.283" stroke-width="1"/>
<line x1="27.35" y1="16.57" x2="20.05" y2="20.22" stroke="#18a8a2" stroke-opacity="0.306" stroke-width="1"/>
<line x1="20.53" y1="26.32" x2="20.05" y2="20.22" stroke="#18a8a2" stroke-opacity="0.319" stroke-width="1"/>
<line x1="9.02" y1="12.55" x2="11.50" y2="5.76" stroke="#18a8a2" stroke-opacity="0.337" stroke-width="1"/>
<line x1="20.97" y1="7.56" x2="27.35" y2="16.57" stroke="#18a8a2" stroke-opacity="0.339" stroke-width="1"/>
<line x1="9.02" y1="12.55" x2="5.11" y2="15.45" stroke="#18a8a2" stroke-opacity="0.350" stroke-width="1"/>
<line x1="20.97" y1="7.56" x2="11.50" y2="5.76" stroke="#18a8a2" stroke-opacity="0.358" stroke-width="1"/>
<line x1="9.42" y1="24.61" x2="20.53" y2="26.32" stroke="#18a8a2" stroke-opacity="0.373" stroke-width="1"/>
<line x1="9.42" y1="24.61" x2="5.11" y2="15.45" stroke="#18a8a2" stroke-opacity="0.392" stroke-width="1"/>
<line x1="21.78" y1="8.44" x2="20.97" y2="7.56" stroke="#18a8a2" stroke-opacity="0.405" stroke-width="1"/>
<line x1="20.53" y1="26.32" x2="27.35" y2="16.57" stroke="#18a8a2" stroke-opacity="0.407" stroke-width="1"/>
<line x1="11.50" y1="5.76" x2="5.11" y2="15.45" stroke="#18a8a2" stroke-opacity="0.445" stroke-width="1"/>
<line x1="9.42" y1="24.61" x2="11.86" y2="23.03" stroke="#18a8a2" stroke-opacity="0.447" stroke-width="1"/>
<line x1="21.78" y1="8.44" x2="27.35" y2="16.57" stroke="#18a8a2" stroke-opacity="0.461" stroke-width="1"/>
<line x1="21.78" y1="8.44" x2="11.50" y2="5.76" stroke="#18a8a2" stroke-opacity="0.480" stroke-width="1"/>
<line x1="20.53" y1="26.32" x2="11.86" y2="23.03" stroke="#18a8a2" stroke-opacity="0.494" stroke-width="1"/>
<line x1="21.50" y1="18.72" x2="27.35" y2="16.57" stroke="#18a8a2" stroke-opacity="0.503" stroke-width="1"/>
<line x1="11.86" y1="23.03" x2="5.11" y2="15.45" stroke="#18a8a2" stroke-opacity="0.514" stroke-width="1"/>
<line x1="21.50" y1="18.72" x2="20.53" y2="26.32" stroke="#18a8a2" stroke-opacity="0.516" stroke-width="1"/>
<line x1="11.50" y1="5.76" x2="12.91" y2="12.77" stroke="#18a8a2" stroke-opacity="0.534" stroke-width="1"/>
<line x1="12.91" y1="12.77" x2="5.11" y2="15.45" stroke="#18a8a2" stroke-opacity="0.547" stroke-width="1"/>
<line x1="21.50" y1="18.72" x2="21.78" y2="8.44" stroke="#18a8a2" stroke-opacity="0.569" stroke-width="1"/>
<line x1="21.78" y1="8.44" x2="12.91" y2="12.77" stroke="#18a8a2" stroke-opacity="0.581" stroke-width="1"/>
<line x1="21.50" y1="18.72" x2="11.86" y2="23.03" stroke="#18a8a2" stroke-opacity="0.590" stroke-width="1"/>
<line x1="11.86" y1="23.03" x2="12.91" y2="12.77" stroke="#18a8a2" stroke-opacity="0.602" stroke-width="1"/>
<line x1="21.50" y1="18.72" x2="12.91" y2="12.77" stroke="#18a8a2" stroke-opacity="0.623" stroke-width="1"/>
<line x1="18.04" y1="8.51" x2="13.95" y2="20.44" stroke="#38d8c8" stroke-opacity="0.339" stroke-width="1"/>
<line x1="23.99" y1="18.55" x2="13.95" y2="20.44" stroke="#38d8c8" stroke-opacity="0.404" stroke-width="1"/>
<line x1="8.18" y1="13.51" x2="13.95" y2="20.44" stroke="#38d8c8" stroke-opacity="0.426" stroke-width="1"/>
<line x1="23.99" y1="18.55" x2="18.04" y2="8.51" stroke="#38d8c8" stroke-opacity="0.456" stroke-width="1"/>
<line x1="8.18" y1="13.51" x2="18.04" y2="8.51" stroke="#38d8c8" stroke-opacity="0.478" stroke-width="1"/>
<line x1="14.25" y1="22.43" x2="13.95" y2="20.44" stroke="#38d8c8" stroke-opacity="0.490" stroke-width="1"/>
<line x1="18.04" y1="8.51" x2="17.58" y2="12.58" stroke="#38d8c8" stroke-opacity="0.595" stroke-width="1"/>
<line x1="23.99" y1="18.55" x2="14.25" y2="22.43" stroke="#38d8c8" stroke-opacity="0.607" stroke-width="1"/>
<line x1="8.18" y1="13.51" x2="14.25" y2="22.43" stroke="#38d8c8" stroke-opacity="0.629" stroke-width="1"/>
<line x1="23.99" y1="18.55" x2="17.58" y2="12.58" stroke="#38d8c8" stroke-opacity="0.659" stroke-width="1"/>
<line x1="8.18" y1="13.51" x2="17.58" y2="12.58" stroke="#38d8c8" stroke-opacity="0.681" stroke-width="1"/>
<line x1="14.25" y1="22.43" x2="17.58" y2="12.58" stroke="#38d8c8" stroke-opacity="0.746" stroke-width="1"/>
<line x1="18.01" y1="21.07" x2="13.57" y2="14.34" stroke="#18e0a0" stroke-opacity="0.505" stroke-width="1"/>
<line x1="13.57" y1="14.34" x2="19.83" y2="12.70" stroke="#18e0a0" stroke-opacity="0.563" stroke-width="1"/>
<line x1="13.57" y1="14.34" x2="12.52" y2="15.86" stroke="#18e0a0" stroke-opacity="0.648" stroke-width="1"/>
<line x1="18.01" y1="21.07" x2="19.83" y2="12.70" stroke="#18e0a0" stroke-opacity="0.716" stroke-width="1"/>
<line x1="18.01" y1="21.07" x2="12.52" y2="15.86" stroke="#18e0a0" stroke-opacity="0.801" stroke-width="1"/>
<line x1="12.52" y1="15.86" x2="19.83" y2="12.70" stroke="#18e0a0" stroke-opacity="0.859" stroke-width="1"/>
</svg>
